<svg width="47" height="38" viewBox="0 0 47 38" fill="none" xmlns="http://www.w3.org/2000/svg">
<path d="M46.286 4.87397C44.616 5.61397 42.822 6.11397 40.936 6.33997C42.882 5.17556 44.3379 3.3429 45.032 1.18397C43.2037 2.26995 41.2027 3.03436 39.116 3.44397C37.7128 1.9457 35.8541 0.952623 33.8287 0.618919C31.8032 0.285215 29.7242 0.629554 27.9145 1.59848C26.1048 2.5674 24.6656 4.10669 23.8203 5.97738C22.9751 7.84806 22.7711 9.94547 23.24 11.944C19.5354 11.758 15.9113 10.7951 12.6029 9.11778C9.29447 7.44049 6.37571 5.08629 4.03602 2.20797C3.23602 3.58797 2.77602 5.18797 2.77602 6.89197C2.77513 8.42596 3.15289 9.93646 3.87578 11.2894C4.59867 12.6424 5.64435 13.796 6.92002 14.648C5.44058 14.6009 3.99377 14.2011 2.70002 13.482V13.602C2.69987 15.7535 3.44409 17.8387 4.80639 19.504C6.16869 21.1692 8.06517 22.3118 10.174 22.738C8.80159 23.1094 7.3627 23.1641 5.96602 22.898C6.56102 24.7492 7.72001 26.368 9.28076 27.5278C10.8415 28.6876 12.7259 29.3303 14.67 29.366C11.3697 31.9568 7.2938 33.3621 3.09802 33.356C2.35479 33.3562 1.61218 33.3128 0.874023 33.226C5.13298 35.9643 10.0907 37.4176 15.154 37.412C32.294 37.412 41.664 23.216 41.664 10.904C41.664 10.504 41.654 10.1 41.636 9.69997C43.4586 8.38192 45.0318 6.74976 46.282 4.87997L46.286 4.87397Z" fill="white"/>
</svg>
